<svg version="1.2" xmlns="http://www.w3.org/2000/svg" viewBox="0 0 512 512" width="512" height="512"><style>.a{fill:#fff}</style><path class="a" d="m359 146v220h-206v-220z"/><path fill-rule="evenodd" d="m258 0.3l213.5 0.2 5.9 2.3c15.4 5.8 27.3 18 32.2 32.8 1.8 5.7 1.9 11.5 1.9 220.4v214.5l-2.3 6.5c-5.2 15.2-17.7 27.6-32.8 32.6-5.7 1.8-11.5 1.9-220.4 1.9h-214.5l-6.5-2.3c-15-5.1-26.5-16.5-32.3-31.9l-2.2-5.8-0.3-212.5c-0.1-135.5 0.1-214.2 0.7-217.1 4.3-20.3 19-35.6 38.6-40.5 3.9-1 51.4-1.2 218.5-1.1zm-70 151.7h-30l0.2 104.2 0.3 104.3 14.8 0.3 14.7 0.3zm138.5 4h-81l-28.5 28.5v27.5h30v-16.4l11.4-11.6h55.2l10.4 10.6v39l-10.6 10.4h-58.4v28h58.6l10.4 10.6v38.8l-11.4 11.6h-55.2l-11.4-11.6v-17.4h-30v28.5l28.5 28.5h81l28.5-28.5v-60l-15.2-15.2 15.2-13.8v-60z"/></svg>