<?xml version="1.0" standalone="no"?>
<!DOCTYPE svg PUBLIC "-//W3C//DTD SVG 20010904//EN"
 "http://www.w3.org/TR/2001/REC-SVG-20010904/DTD/svg10.dtd">
<svg version="1.0" xmlns="http://www.w3.org/2000/svg"
 width="512.000000pt" height="512.000000pt" viewBox="0 0 512.000000 512.000000"
 preserveAspectRatio="xMidYMid meet">

<g transform="translate(0.000000,512.000000) scale(0.100000,-0.100000)"
fill="#000000" stroke="none">
<path d="M395 5106 c-196 -49 -343 -202 -386 -405 -6 -29 -8 -816 -7 -2171 l3
-2125 22 -58 c58 -154 173 -268 323 -319 l65 -23 2145 0 c2089 0 2147 1 2204
19 151 50 276 174 328 326 l23 65 0 2145 c0 2089 -1 2147 -19 2204 -49 148
-168 270 -322 328 l-59 23 -2135 2 c-1671 1 -2146 -1 -2185 -11z m1485 -2551
l0 -1046 -147 3 -148 3 -3 1043 -2 1042 150 0 150 0 0 -1045z m1522 868 l138
-138 0 -300 0 -300 -76 -69 -76 -69 76 -76 76 -76 0 -300 0 -300 -142 -142
-143 -143 -405 0 -405 0 -142 142 -143 143 0 142 0 143 150 0 150 0 0 -87 0
-87 57 -58 57 -58 276 0 276 0 57 58 57 58 0 194 0 194 -52 53 -52 53 -293 0
-293 0 0 140 0 140 292 0 292 0 53 52 53 52 0 195 0 195 -52 53 -52 53 -276 0
-276 0 -57 -58 -57 -58 0 -82 0 -82 -150 0 -150 0 0 137 0 138 142 142 143
143 405 0 405 0 137 -137z"/>
</g>
</svg>
